<?xml version="1.0" encoding="UTF-8" standalone="no"?>
<!-- Created with Inkscape (http://www.inkscape.org/) -->
<svg
   xmlns:dc="http://purl.org/dc/elements/1.1/"
   xmlns:cc="http://web.resource.org/cc/"
   xmlns:rdf="http://www.w3.org/1999/02/22-rdf-syntax-ns#"
   xmlns:svg="http://www.w3.org/2000/svg"
   xmlns="http://www.w3.org/2000/svg"
   xmlns:sodipodi="http://sodipodi.sourceforge.net/DTD/sodipodi-0.dtd"
   xmlns:inkscape="http://www.inkscape.org/namespaces/inkscape"
   width="250.16109"
   height="181.51361"
   id="svg2491"
   sodipodi:version="0.32"
   inkscape:version="0.45.1"
   version="1.0"
   sodipodi:docbase="/home/museo8bits/oli"
   sodipodi:docname="IEC_60320_C20.svg"
   inkscape:output_extension="org.inkscape.output.svg.inkscape">
  <defs
     id="defs2493" />
  <sodipodi:namedview
     id="base"
     pagecolor="#ffffff"
     bordercolor="#ffffff"
     borderopacity="0.0"
     inkscape:pageopacity="0.0"
     inkscape:pageshadow="0"
     inkscape:zoom="2"
     inkscape:cx="96.728709"
     inkscape:cy="97.142857"
     inkscape:document-units="px"
     inkscape:current-layer="layer1"
     inkscape:window-width="910"
     inkscape:window-height="627"
     inkscape:window-x="0"
     inkscape:window-y="25" />
  <metadata
     id="metadata2496">
    <rdf:RDF>
      <cc:Work
         rdf:about="">
        <dc:format>image/svg+xml</dc:format>
        <dc:type
           rdf:resource="http://purl.org/dc/dcmitype/StillImage" />
      </cc:Work>
    </rdf:RDF>
  </metadata>
  <g
     inkscape:label="Layer 1"
     inkscape:groupmode="layer"
     id="layer1"
     transform="translate(802.2234,18.394625)">
    <path
       d="M -782.9109,-17.749272 C -782.1609,-17.874272 -780.5359,-18.124272 -779.7859,-18.249272 C -712.6609,-18.249272 -645.5359,-18.249272 -578.4109,-18.249272 C -565.9109,-19.374272 -554.4109,-8.8742722 -552.1609,3.0007278 C -552.0359,48.375728 -552.2859,93.875728 -552.1609,139.25073 C -553.7859,149.50073 -560.4109,160.25073 -571.0359,163.00073 C -636.7859,163.00073 -702.6609,163.00073 -768.4109,163.00073 C -774.9109,163.25073 -781.6609,162.75073 -787.5359,159.62573 C -796.4109,155.00073 -802.0359,145.37573 -802.1609,135.37573 C -802.1609,92.875728 -802.1609,50.375728 -802.1609,7.8757278 C -802.1609,-3.6242722 -794.1609,-14.749272 -782.9109,-17.749272 z "
       id="path2414"
       style="fill:#2e2e2e;stroke:#2e2e2e;stroke-width:0.1171875" />
    <path
       d="M -782.9109,-14.874272 C -780.6609,-15.749272 -778.2859,-15.749272 -775.9109,-15.749272 C -709.2859,-15.749272 -642.5359,-15.749272 -575.7859,-15.749272 C -564.6609,-14.874272 -554.1609,-4.8742722 -554.6609,6.6257278 C -554.6609,48.750728 -554.6609,91.000728 -554.6609,133.12573 C -554.7859,141.25073 -556.6609,150.25073 -563.2859,155.62573 C -566.1609,158.00073 -569.4109,160.75073 -573.2859,160.50073 C -640.0359,160.50073 -706.7859,160.50073 -773.4109,160.50073 C -787.1609,161.25073 -799.7859,149.37573 -799.6609,135.62573 C -799.6609,93.000728 -799.6609,50.500728 -799.6609,7.8757278 C -800.0359,-2.3742722 -792.4109,-11.749272 -782.9109,-14.874272 z "
       id="path2418"
       style="fill:#ffffff;stroke:#ffffff;stroke-width:0.1171875" />
    <path
       d="M -704.6609,28.000728 C -686.2859,28.000728 -668.0359,28.000728 -649.6609,28.000728 C -649.6609,34.625728 -649.6609,41.375728 -649.6609,48.000728 C -668.0359,48.000728 -686.2859,48.000728 -704.6609,48.000728 C -704.6609,41.375728 -704.6609,34.625728 -704.6609,28.000728 z "
       id="path2422"
       style="fill:#2e2e2e;stroke:#2e2e2e;stroke-width:0.1171875" />
    <path
       d="M -702.1609,30.500728 C -685.5359,30.500728 -668.7859,30.500728 -652.1609,30.500728 C -652.1609,35.500728 -652.1609,40.500728 -652.1609,45.500728 C -668.7859,45.500728 -685.5359,45.500728 -702.1609,45.500728 C -702.1609,40.500728 -702.1609,35.500728 -702.1609,30.500728 z "
       id="path2424"
       style="fill:#000000;stroke:#000000;stroke-width:0.1171875;fill-opacity:0;stroke-opacity:0" />
    <path
       d="M -759.6609,96.750728 C -741.2859,96.750728 -723.0359,96.750728 -704.6609,96.750728 C -704.6609,103.37573 -704.6609,110.12573 -704.6609,116.75073 C -723.0359,116.75073 -741.2859,116.75073 -759.6609,116.75073 C -759.6609,110.12573 -759.6609,103.37573 -759.6609,96.750728 z "
       id="path2426"
       style="fill:#2e2e2e;stroke:#2e2e2e;stroke-width:0.1171875" />
    <path
       d="M -648.4109,96.750728 C -630.0359,96.750728 -611.7859,96.750728 -593.4109,96.750728 C -593.4109,103.37573 -593.4109,110.12573 -593.4109,116.75073 C -611.7859,116.75073 -630.0359,116.75073 -648.4109,116.75073 C -648.4109,110.12573 -648.4109,103.37573 -648.4109,96.750728 z "
       id="path2428"
       style="fill:#2e2e2e;stroke:#2e2e2e;stroke-width:0.1171875" />
    <path
       d="M -757.1609,99.250728 C -740.5359,99.250728 -723.7859,99.250728 -707.1609,99.250728 C -707.1609,104.25073 -707.1609,109.25073 -707.1609,114.25073 C -723.7859,114.25073 -740.5359,114.25073 -757.1609,114.25073 C -757.1609,109.25073 -757.1609,104.25073 -757.1609,99.250728 z "
       id="path2434"
       style="fill:#000000;stroke:#000000;stroke-width:0.1171875;fill-opacity:0;stroke-opacity:0" />
    <path
       d="M -645.9109,99.250728 C -629.2859,99.250728 -612.5359,99.250728 -595.9109,99.250728 C -595.9109,104.25073 -595.9109,109.25073 -595.9109,114.25073 C -612.5359,114.25073 -629.2859,114.25073 -645.9109,114.25073 C -645.9109,109.25073 -645.9109,104.25073 -645.9109,99.250728 z "
       id="path2436"
       style="fill:#000000;stroke:#000000;stroke-width:0.1171875;fill-opacity:0;stroke-opacity:0" />
  </g>
</svg>
